<svg width="110" height="38" viewBox="0 0 110 38" fill="none" xmlns="http://www.w3.org/2000/svg">
<path fill-rule="evenodd" clip-rule="evenodd" d="M53.3496 20.8138H55.6598V23.9767C55.3916 24.0887 54.7715 24.1754 54.0145 24.1754C51.2378 24.1754 49.2824 22.3729 49.2824 19.2547C49.2824 15.9826 51.4389 14.4011 54.2603 14.4011C55.9056 14.4011 56.9057 14.6698 57.727 15.0477L58.4393 12.3074C57.7074 11.9743 56.2157 11.5965 54.2827 11.5965C49.3718 11.5965 45.7487 14.4459 45.7263 19.4338C45.7263 21.6395 46.4833 23.596 47.8382 24.9116C49.2153 26.2244 51.1931 26.9157 53.9279 26.9157C55.9056 26.9157 57.8834 26.4259 58.9282 26.0704V18.1659H53.3496V20.8138ZM69.4427 19.7221V19.655C70.7305 19.1875 72.0881 17.8748 72.0881 15.9826C72.0881 14.6027 71.5992 13.5334 70.6886 12.8197C69.6215 11.9743 68.0655 11.6385 65.8447 11.6385C64.0234 11.6385 62.4228 11.7728 61.3333 11.9492V26.7562H64.6882V20.8586H65.6883C67.0878 20.881 67.7331 21.3708 68.1549 23.263C68.5767 25.1103 68.9538 26.3139 69.1773 26.759H72.644C72.3563 26.1796 71.9121 24.2202 71.4428 22.5072C71.0657 21.1273 70.4874 20.1476 69.4427 19.7221ZM66.0207 18.4094H64.6882V14.2892C64.9313 14.222 65.3978 14.1772 66.2218 14.1772C67.7778 14.1772 68.7108 14.891 68.7108 16.2485C68.708 17.5641 67.7108 18.4094 66.0207 18.4094ZM78.0465 11.7532L73.4904 26.759H76.9794L78.0465 22.9075H82.3345L83.4909 26.759H87.1559L82.4881 11.7504H78.0465V11.7532ZM78.5354 20.3687L79.4237 17.1834C79.6667 16.3157 79.8902 15.1793 80.1137 14.2892H80.1584C80.3818 15.1793 80.6472 16.2933 80.9154 17.1834L81.8484 20.3687H78.5354ZM94.6005 17.8524C92.6451 17.119 91.8238 16.6936 91.8238 15.7363C91.8238 14.9777 92.5361 14.2892 94.0027 14.2892C95.4469 14.2892 96.5363 14.7118 97.1146 15.0001L97.8688 12.285C96.9805 11.8624 95.757 11.5293 94.0474 11.5293C90.536 11.5293 88.3795 13.4662 88.3795 16.0274C88.3795 18.2107 90.0248 19.5906 92.5138 20.4807C94.3128 21.1049 95.0251 21.6395 95.0251 22.5744C95.0251 23.5541 94.2038 24.2006 92.6479 24.2006C91.2037 24.2006 89.7818 23.7332 88.8935 23.2658L88.2035 26.048C89.0471 26.5155 90.7371 26.9829 92.4467 26.9829C96.5587 26.9829 98.4694 24.8444 98.4694 22.3309C98.4694 20.212 97.2459 18.832 94.6005 17.8524ZM105.847 17.8524C103.891 17.119 103.07 16.6936 103.07 15.7363C103.07 14.9777 103.78 14.2892 105.246 14.2892C106.691 14.2892 107.78 14.7118 108.358 15.0001L109.112 12.285C108.224 11.8624 107.001 11.5293 105.291 11.5293C101.78 11.5293 99.6259 13.4662 99.6259 16.0274C99.6259 18.2107 101.271 19.5906 103.76 20.4807C105.559 21.1049 106.272 21.6395 106.272 22.5744C106.272 23.5541 105.45 24.2006 103.894 24.2006C102.45 24.2006 101.028 23.7332 100.14 23.2658L99.4499 26.048C100.294 26.5155 101.984 26.9829 103.693 26.9829C107.805 26.9829 109.716 24.8444 109.716 22.3309C109.713 20.212 108.492 18.832 105.847 17.8524Z" fill="black"/>
<path d="M32.8273 6.45607C29.9283 7.04935 24.6777 8.65287 21.4101 10.3431C18.081 12.0642 14.5005 15.8617 14.481 20.8598C14.4614 25.62 16.665 27.092 20.2063 26.0566C21.1699 25.7739 21.9631 25.4073 22.3038 25.1387L22.3233 21.4251L19.3769 22.2842L19.3936 17.121L27.9817 14.0875L27.923 28.8662C26.3283 29.9828 23.9711 31.5388 20.9548 32.4175C16.7851 33.6348 13.442 32.9212 11.3502 31.133C9.29185 29.3364 7.75577 26.3112 7.83677 22.2842C8.07137 12.3273 13.5007 6.20421 20.6113 2.98317C22.0748 2.31993 23.6332 1.70147 25.1693 1.14737C23.1556 0.405778 20.98 0 18.7094 0C8.37579 0 0 8.39261 0 18.747C0 29.1013 8.37579 37.4939 18.7094 37.4939C29.043 37.4939 37.4187 29.1013 37.4187 18.747C37.4215 14.0483 35.6844 9.74987 32.8273 6.45607Z" fill="#2EA836"/>
</svg>
