<svg width="192" height="192" viewBox="0 0 192 192" fill="none" xmlns="http://www.w3.org/2000/svg">
<path d="M167.032 32.6201C152.282 35.6178 125.565 43.7198 108.939 52.2599C91.9998 60.956 73.7821 80.1433 73.6825 105.397C73.583 129.448 84.7953 136.886 102.814 131.654C107.717 130.226 111.753 128.374 113.487 127.017L113.586 108.253L98.594 112.594L98.6789 86.5061L142.377 71.1789L142.078 145.85C133.964 151.492 121.971 159.354 106.623 163.794C85.4062 169.944 68.396 166.339 57.7521 157.304C47.279 148.226 39.4631 132.941 39.8752 112.594C41.0689 62.2853 68.6946 31.3476 104.875 15.0729C112.322 11.7218 120.251 8.5969 128.067 5.79724C117.821 2.05025 106.751 0 95.1976 0C42.6179 0 0 42.4048 0 94.7217C0 147.038 42.6179 189.443 95.1976 189.443C147.777 189.443 190.395 147.038 190.395 94.7217C190.409 70.9809 181.57 49.2625 167.032 32.6201Z" fill="#2EA836"/>
</svg>
