<svg xmlns="http://www.w3.org/2000/svg" aria-hidden="true"
     style="position:absolute;width:0;height:0;overflow:hidden">
  <defs>
    <symbol id="chevronDown" viewBox="0 0 24 24" fill="none">
      <path fill-rule="evenodd" clip-rule="evenodd"
            d="M6.5 8.5L12 13.9999L17.5 8.5L19 10L12 16.9999L5 10L6.5 8.5Z" fill="currentColor"/>
    </symbol>

    <symbol id="success" viewBox="0 0 24 24" fill="none">
      <g clip-path="url(#clip0_2001_9164)">
        <path
          d="M12 22C6.477 22 2 17.523 2 12C2 6.477 6.477 2 12 2C17.523 2 22 6.477 22 12C22 17.523 17.523 22 12 22ZM11.003 16L17.3661 9.63599C17.7565 9.24552 17.7565 8.6125 17.3661 8.22206C16.9756 7.83157 16.3425 7.8316 15.952 8.22212L11.003 13.172L8.881 11.05C8.49053 10.6595 7.85747 10.6595 7.467 11.05C7.07653 11.4405 7.07654 12.0735 7.467 12.464L11.003 16Z"
          fill="#00C444"/>
      </g>
      <defs>
        <clipPath id="clip0_2001_9164">
          <rect width="24" height="24" fill="white"/>
        </clipPath>
      </defs>
    </symbol>

    <symbol id="exit" viewBox="0 0 20 20" fill="none">
      <path d="M12.5 3.33333H4.16667V15C4.16667 15.9205 4.91286 16.6667 5.83333 16.6667H12.5"
            stroke="#292929" stroke-width="1.66667" stroke-linecap="round" stroke-linejoin="round"/>
      <path d="M13.3333 12.5L15.8333 10M15.8333 10L13.3333 7.5M15.8333 10H7.5" stroke="#292929"
            stroke-width="1.66667" stroke-linecap="round" stroke-linejoin="round"/>
    </symbol>

    <symbol id="xCircle" viewBox="0 0 24 24" fill="none">
      <path fill-rule="evenodd" clip-rule="evenodd"
            d="M22 12.001C22 17.5239 17.5228 22.001 12 22.001C6.47715 22.001 2 17.5239 2 12.001C2 6.47816 6.47715 2.00101 12 2.00101C17.5228 2.00101 22 6.47816 22 12.001ZM10.5859 12.0011L8 14.501L9.5 16.001L12.0001 13.4153L14.5 16.001L16 14.501L13.4143 12.0011L16 9.50101L14.5 8.00101L12.0001 10.5869L9.5 8.00101L8 9.50101L10.5859 12.0011Z"
            fill="#C5C5C7"/>
    </symbol>

    <symbol id="filter" viewBox="0 0 20 20" fill="none">
      <path
        d="M16.6666 3.33333H3.33331L8.66665 9.90278V14.4444L11.3333 15.8333V9.90278L16.6666 3.33333Z"
        stroke="#949494" stroke-width="1.4" stroke-linecap="round" stroke-linejoin="round"/>
    </symbol>

    <symbol id="filtered" viewBox="0 0 20 20" fill="none">
      <path
        d="M16.6668 3.33325H3.3335L8.66683 9.9027V14.4444L11.3335 15.8333V9.9027L16.6668 3.33325Z"
        fill="#00C444" stroke="#00C444" stroke-width="1.38889" stroke-linecap="round"
        stroke-linejoin="round"/>
    </symbol>

    <symbol id="sorter" viewBox="0 0 20 20" fill="none">
      <path
        d="M16.2778 12.9983L13.3889 15.9983M13.3889 15.9983L10.5 12.9983M13.3889 15.9983V3.99832"
        stroke="#949494" stroke-width="1.4" stroke-linecap="round" stroke-linejoin="round"/>
      <path d="M9.5 6.99834L6.61111 3.99834M6.61111 3.99834L3.72222 6.99834M6.61111 3.99834V15.9983"
            stroke="#949494" stroke-width="1.4" stroke-linecap="round" stroke-linejoin="round"/>
    </symbol>

    <symbol id="asc" viewBox="0 0 20 20" fill="none">
      <path
        d="M3.72223 6.99832L6.61112 3.99832M6.61112 3.99832L9.50001 6.99832M6.61112 3.99832V15.9983"
        stroke="#00C444" stroke-width="1.4" stroke-linecap="round" stroke-linejoin="round"/>
      <path
        d="M10.5 12.9983L13.3889 15.9983M13.3889 15.9983L16.2778 12.9983M13.3889 15.9983V3.99832"
        stroke="#949494" stroke-width="1.4" stroke-linecap="round" stroke-linejoin="round"/>
    </symbol>

    <symbol id="desc" viewBox="0 0 20 20" fill="none">
      <path
        d="M16.2778 12.9984L13.3889 15.9984M13.3889 15.9984L10.5 12.9984M13.3889 15.9984V3.99835"
        stroke="#00C444" stroke-width="1.4" stroke-linecap="round" stroke-linejoin="round"/>
      <path d="M9.5 6.99835L6.61111 3.99835M6.61111 3.99835L3.72222 6.99835M6.61111 3.99835V15.9984"
            stroke="#949494" stroke-width="1.4" stroke-linecap="round" stroke-linejoin="round"/>
    </symbol>

    <symbol id="bell" viewBox="0 0 20 20" fill="none">
      <path
        d="M8.55667 17.5C8.8544 18.0156 9.40459 18.3333 10 18.3333C10.5954 18.3333 11.1456 18.0156 11.4433 17.5M2.71833 12.7717C2.49591 13.0155 2.4383 13.3675 2.57142 13.6695C2.70455 13.9715 3.00332 14.1664 3.33333 14.1667H16.6667C16.9966 14.1668 17.2956 13.9722 17.4291 13.6704C17.5626 13.3687 17.5054 13.0166 17.2833 12.7725C16.175 11.63 15 10.4158 15 6.66667C15 3.90709 12.7596 1.66667 10 1.66667C7.24042 1.66667 5 3.90709 5 6.66667C5 10.4158 3.82417 11.63 2.71833 12.7717"
        stroke="currentColor" stroke-width="1.66667" stroke-linecap="round"
        stroke-linejoin="round"/>
    </symbol>

    <symbol id="box" viewBox="0 0 20 20" fill="none">
      <path
        d="M9.16667 18.6022C9.68234 18.9 10.3177 18.9 10.8333 18.6022L16.6667 15.2689C17.1818 14.9715 17.4994 14.4221 17.5 13.8272V7.16056C17.4994 6.56573 17.1818 6.01631 16.6667 5.7189L10.8333 2.38556C10.3177 2.08784 9.68234 2.08784 9.16667 2.38556L3.33333 5.7189C2.81819 6.01631 2.50061 6.56573 2.5 7.16056V13.8272C2.50061 14.4221 2.81819 14.9715 3.33333 15.2689M10 18.8272V10.4939"
        stroke="currentColor" stroke-width="1.66667" stroke-linecap="round"
        stroke-linejoin="round"/>
      <path d="M2.74167 6.32723L10 10.4939L17.2583 6.32723M6.25 4.05223L13.75 8.3439"
            stroke="currentColor" stroke-width="1.66667" stroke-linecap="round"
            stroke-linejoin="round"/>
    </symbol>

    <symbol id="graph" viewBox="0 0 20 20" fill="none">
      <path d="M2.5 2.9939V17.9939H17.5" stroke="currentColor" stroke-width="1.66667"
            stroke-linecap="round" stroke-linejoin="round"/>
      <path d="M15.8333 7.9939L11.6667 12.1606L8.33333 8.82723L5.83333 11.3272"
            stroke="currentColor" stroke-width="1.66667" stroke-linecap="round"
            stroke-linejoin="round"/>
    </symbol>

    <symbol id="grid" viewBox="0 0 20 20" fill="none">
      <path
        d="M3.33333 2.9939H7.5C7.95993 2.9939 8.33333 3.3673 8.33333 3.82723V9.66056C8.33333 10.1205 7.95993 10.4939 7.5 10.4939H3.33333C2.8734 10.4939 2.5 10.1205 2.5 9.66056V3.82723C2.5 3.3673 2.8734 2.9939 3.33333 2.9939"
        stroke="currentColor" stroke-width="1.66667" stroke-linecap="round"
        stroke-linejoin="round"/>
      <path
        d="M12.5 2.9939H16.6667C17.1266 2.9939 17.5 3.3673 17.5 3.82723V6.32723C17.5 6.78716 17.1266 7.16056 16.6667 7.16056H12.5C12.0401 7.16056 11.6667 6.78716 11.6667 6.32723V3.82723C11.6667 3.3673 12.0401 2.9939 12.5 2.9939"
        stroke="currentColor" stroke-width="1.66667" stroke-linecap="round"
        stroke-linejoin="round"/>
      <path
        d="M12.5 10.4939H16.6667C17.1266 10.4939 17.5 10.8673 17.5 11.3272V17.1606C17.5 17.6205 17.1266 17.9939 16.6667 17.9939H12.5C12.0401 17.9939 11.6667 17.6205 11.6667 17.1606V11.3272C11.6667 10.8673 12.0401 10.4939 12.5 10.4939"
        stroke="currentColor" stroke-width="1.66667" stroke-linecap="round"
        stroke-linejoin="round"/>
      <path
        d="M3.33333 13.8272H7.5C7.95993 13.8272 8.33333 14.2006 8.33333 14.6606V17.1606C8.33333 17.6205 7.95993 17.9939 7.5 17.9939H3.33333C2.8734 17.9939 2.5 17.6205 2.5 17.1606V14.6606C2.5 14.2006 2.8734 13.8272 3.33333 13.8272"
        stroke="currentColor" stroke-width="1.66667" stroke-linecap="round"
        stroke-linejoin="round"/>
    </symbol>

    <symbol id="magnifier" viewBox="0 0 24 24" fill="none">
      <path
        d="M11 19C15.4183 19 19 15.4183 19 11C19 6.58172 15.4183 3 11 3C6.58172 3 3 6.58172 3 11C3 15.4183 6.58172 19 11 19Z"
        stroke="#4A4A4A" stroke-width="2" stroke-linecap="round" stroke-linejoin="round"/>
      <path d="M20.9999 21L16.6499 16.65" stroke="currentColor" stroke-width="2"
            stroke-linecap="round" stroke-linejoin="round"/>
    </symbol>

    <symbol id="settings" viewBox="0 0 20 20" fill="none">
      <path
        d="M10.1833 2.16081H9.81667C8.89681 2.16081 8.15 2.90762 8.15 3.82747V3.97747C8.14939 4.57231 7.83181 5.12172 7.31667 5.41914L6.95833 5.62747C6.44267 5.9252 5.80733 5.9252 5.29167 5.62747L5.16667 5.56081C4.37034 5.10145 3.35244 5.37363 2.89167 6.16914L2.70833 6.48581C2.24897 7.28213 2.52116 8.30003 3.31667 8.76081L3.44167 8.84414C3.95424 9.14006 4.27143 9.68562 4.275 10.2775V10.7025C4.27737 11.3003 3.95939 11.8536 3.44167 12.1525L3.31667 12.2275C2.52116 12.6882 2.24897 13.7061 2.70833 14.5025L2.89167 14.8191C3.35244 15.6146 4.37034 15.8868 5.16667 15.4275L5.29167 15.3608C5.80733 15.0631 6.44267 15.0631 6.95833 15.3608L7.31667 15.5691C7.83181 15.8666 8.14939 16.416 8.15 17.0108V17.1608C8.15 18.0807 8.89681 18.8275 9.81667 18.8275H10.1833C11.1032 18.8275 11.85 18.0807 11.85 17.1608V17.0108C11.8506 16.416 12.1682 15.8666 12.6833 15.5691L13.0417 15.3608C13.5573 15.0631 14.1927 15.0631 14.7083 15.3608L14.8333 15.4275C15.6297 15.8868 16.6476 15.6146 17.1083 14.8191L17.2917 14.4941C17.751 13.6978 17.4788 12.6799 16.6833 12.2191L16.5583 12.1525C16.0406 11.8536 15.7226 11.3003 15.725 10.7025V10.2858C15.7226 9.688 16.0406 9.13471 16.5583 8.83581L16.6833 8.76081C17.4788 8.30003 17.751 7.28213 17.2917 6.48581L17.1083 6.16914C16.6476 5.37363 15.6297 5.10145 14.8333 5.56081L14.7083 5.62747C14.1927 5.9252 13.5573 5.9252 13.0417 5.62747L12.6833 5.41914C12.1682 5.12172 11.8506 4.57231 11.85 3.97747V3.82747C11.85 2.907 11.1038 2.16081 10.1833 2.16081"
        stroke="currentColor" stroke-width="1.66667" stroke-linecap="round"
        stroke-linejoin="round"/>
      <path
        d="M10 7.99414C8.62021 7.99414 7.5 9.11435 7.5 10.4941C7.5 11.8739 8.62021 12.9941 10 12.9941C11.3798 12.9941 12.5 11.8739 12.5 10.4941C12.5 9.11435 11.3798 7.99414 10 7.99414"
        stroke="currentColor" stroke-width="1.66667" stroke-linecap="round"
        stroke-linejoin="round"/>
    </symbol>

    <symbol id="star" viewBox="0 0 20 21" fill="none">
      <path
        d="M10.4571 15.8326L5.23007 18.5808L6.22857 12.76L2 8.63815L7.84361 7.78956L10.4571 2.4939L13.0707 7.78956L18.9143 8.63815L14.6857 12.76L15.6842 18.5808L10.4571 15.8326Z"
        stroke="currentColor" stroke-width="1.67" stroke-linecap="round" stroke-linejoin="round"/>
    </symbol>

    <symbol id="starred" viewBox="0 0 20 20" fill="none">
      <path
        d="M10.4571 15.3387L5.23007 18.0869L6.22857 12.2661L2 8.14426L7.84361 7.29566L10.4571 2L13.0707 7.29566L18.9143 8.14426L14.6857 12.2661L15.6842 18.0869L10.4571 15.3387Z"
        fill="currentColor" stroke="currentColor" stroke-width="1.67" stroke-linecap="round"
        stroke-linejoin="round"/>
    </symbol>

    <symbol id="chart" viewBox="0 0 48 48" fill="none">
      <path d="M36.5 40.5V20.5M24.5 40.5V8.5M12.5 40.5V28.5" stroke="currentColor" stroke-width="4"
            stroke-linecap="round" stroke-linejoin="round"/>
    </symbol>

    <symbol id="cloudImport" viewBox="0 0 48 48" fill="none">
      <path
        d="M24 26V42M8 29.798C3.92989 25.6396 2.85631 19.3971 5.30334 14.1178C7.75036 8.83855 13.2078 5.62328 19.0115 6.04155C24.8153 6.45982 29.7553 10.4244 31.42 16H35C38.9647 15.9995 42.4627 18.5936 43.6135 22.3876C44.7644 26.1816 43.2969 30.2818 40 32.484"
        stroke="currentColor" stroke-width="4" stroke-linecap="round" stroke-linejoin="round"/>
      <path d="M16 34L24 26L32 34" stroke="currentColor" stroke-width="4" stroke-linecap="round"
            stroke-linejoin="round"/>
    </symbol>

    <symbol id="arrowDown" viewBox="0 0 24 24" fill="none">
      <path
        d="M8.53033 13.4697C8.23744 13.1768 7.76256 13.1768 7.46967 13.4697C7.17678 13.7626 7.17678 14.2374 7.46967 14.5303L11.4697 18.5303C11.7626 18.8232 12.2374 18.8232 12.5303 18.5303L16.5303 14.5303C16.8232 14.2374 16.8232 13.7626 16.5303 13.4697C16.2374 13.1768 15.7626 13.1768 15.4697 13.4697L12.75 16.1893L12.75 6.5C12.75 6.08579 12.4142 5.75 12 5.75C11.5858 5.75 11.25 6.08579 11.25 6.5L11.25 16.1893L8.53033 13.4697Z"
        fill="currentColor"/>
    </symbol>

    <symbol id="arrowUp" viewBox="0 0 24 24" fill="none">
      <path
        d="M8.53033 10.5303C8.23744 10.8232 7.76256 10.8232 7.46967 10.5303C7.17678 10.2374 7.17678 9.76256 7.46967 9.46967L11.4697 5.46967C11.7626 5.17678 12.2374 5.17678 12.5303 5.46967L16.5303 9.46967C16.8232 9.76256 16.8232 10.2374 16.5303 10.5303C16.2374 10.8232 15.7626 10.8232 15.4697 10.5303L12.75 7.81066L12.75 17.5C12.75 17.9142 12.4142 18.25 12 18.25C11.5858 18.25 11.25 17.9142 11.25 17.5L11.25 7.81066L8.53033 10.5303Z"
        fill="currentColor"/>
    </symbol>

    <symbol id="chevronLeft" viewBox="0 0 24 24" fill="none">
      <path fill-rule="evenodd" clip-rule="evenodd"
            d="M14.6666 18.501C14.4959 18.501 14.3253 18.4357 14.1953 18.3057L8.862 12.9724C8.60134 12.7117 8.60134 12.2904 8.862 12.0297L14.1953 6.69647C14.4559 6.43581 14.8773 6.43581 15.1379 6.69647C15.3986 6.95714 15.3986 7.37846 15.1379 7.63913L10.276 12.5011L15.1379 17.363C15.3986 17.6237 15.3986 18.045 15.1379 18.3057C15.0079 18.4357 14.8373 18.501 14.6666 18.501Z"
            fill="currentColor"/>
    </symbol>

    <symbol id="chevronRight" viewBox="0 0 24 24" fill="none">
      <path fill-rule="evenodd" clip-rule="evenodd"
            d="M9.33341 18.501C9.50407 18.501 9.67474 18.4357 9.80474 18.3057L15.138 12.9724C15.3987 12.7117 15.3987 12.2904 15.138 12.0297L9.80474 6.69647C9.54407 6.43581 9.12275 6.43581 8.86208 6.69647C8.60142 6.95714 8.60142 7.37846 8.86208 7.63913L13.724 12.5011L8.86208 17.363C8.60142 17.6237 8.60142 18.045 8.86208 18.3057C8.99208 18.4357 9.16275 18.501 9.33341 18.501Z"
            fill="currentColor"/>
    </symbol>

    <symbol id="error" viewBox="0 0 24 24" fill="none">
      <g clip-path="url(#clip0_641_10529)">
        <path
          d="M12.866 3.5L22.392 20C22.4798 20.152 22.526 20.3245 22.526 20.5C22.526 20.6755 22.4798 20.848 22.392 21C22.3042 21.152 22.178 21.2782 22.026 21.366C21.874 21.4538 21.7015 21.5 21.526 21.5H2.474C2.29847 21.5 2.12602 21.4538 1.97401 21.366C1.82199 21.2782 1.69576 21.152 1.60799 21C1.52023 20.848 1.47402 20.6755 1.47403 20.5C1.47403 20.3245 1.52023 20.152 1.608 20L11.134 3.5C11.2218 3.34799 11.348 3.22177 11.5 3.13401C11.652 3.04625 11.8245 3.00004 12 3.00004C12.1755 3.00004 12.348 3.04625 12.5 3.13401C12.652 3.22177 12.7782 3.34799 12.866 3.5ZM12 16.5C11.4477 16.5 11 16.9477 11 17.5C11 18.0523 11.4477 18.5 12 18.5C12.5523 18.5 13 18.0523 13 17.5C13 16.9477 12.5523 16.5 12 16.5ZM12 9.5C11.4477 9.5 11 9.94772 11 10.5V13.5C11 14.0523 11.4477 14.5 12 14.5C12.5523 14.5 13 14.0523 13 13.5V10.5C13 9.94772 12.5523 9.5 12 9.5Z"
          fill="#FF0000"/>
      </g>
      <defs>
        <clipPath id="clip0_641_10529">
          <rect width="24" height="24" fill="white" transform="translate(0 0.5)"/>
        </clipPath>
      </defs>
    </symbol>

    <symbol id="x" viewBox="0 0 24 24" fill="none">
      <path d="M18 6L6 18M6 6L18 18" stroke="#949494" stroke-width="2" stroke-linecap="round"
            stroke-linejoin="round"/>
    </symbol>

    <symbol id="info" viewBox="0 0 20 20" fill="none">
      <circle cx="10" cy="10" r="7.5" stroke="#949494" stroke-width="1.66667"/>
      <path
        d="M10.4166 6.25001C10.4166 6.48013 10.23 6.66668 9.99992 6.66668C9.7698 6.66668 9.58325 6.48013 9.58325 6.25001C9.58325 6.01989 9.7698 5.83334 9.99992 5.83334C10.23 5.83334 10.4166 6.01989 10.4166 6.25001Z"
        fill="#949494" stroke="#949494" stroke-width="0.833333"/>
      <path d="M10 14.1667V8.33334" stroke="#949494" stroke-width="1.66667"/>
    </symbol>

    <symbol id="image" viewBox="0 0 160 160" fill="none">
      <path
        d="M33.3333 140C29.6667 140 26.5289 138.696 23.92 136.087C21.3111 133.478 20.0044 130.338 20 126.667V33.3333C20 29.6667 21.3067 26.5289 23.92 23.92C26.5333 21.3111 29.6711 20.0044 33.3333 20H126.667C130.333 20 133.473 21.3067 136.087 23.92C138.7 26.5333 140.004 29.6711 140 33.3333V126.667C140 130.333 138.696 133.473 136.087 136.087C133.478 138.7 130.338 140.004 126.667 140H33.3333ZM33.3333 126.667H126.667V33.3333H33.3333V126.667ZM46.6667 113.333H113.333C114.667 113.333 115.667 112.722 116.333 111.5C117 110.278 116.889 109.111 116 108L97.6667 83.5C97 82.6111 96.1111 82.1667 95 82.1667C93.8889 82.1667 93 82.6111 92.3333 83.5L75 106.667L62.6667 90.1667C62 89.2778 61.1111 88.8333 60 88.8333C58.8889 88.8333 58 89.2778 57.3333 90.1667L44 108C43.1111 109.111 43 110.278 43.6667 111.5C44.3333 112.722 45.3333 113.333 46.6667 113.333ZM56.6667 66.6667C59.4444 66.6667 61.8067 65.6933 63.7533 63.7467C65.7 61.8 66.6711 59.44 66.6667 56.6667C66.6622 53.8933 65.6911 51.5333 63.7533 49.5867C61.8156 47.64 59.4533 46.6667 56.6667 46.6667C53.88 46.6667 51.52 47.64 49.5867 49.5867C47.6533 51.5333 46.68 53.8933 46.6667 56.6667C46.6533 59.44 47.6267 61.8022 49.5867 63.7533C51.5467 65.7044 53.9067 66.6756 56.6667 66.6667Z"
        fill="currentColor"/>
    </symbol>


    <symbol id="dots" viewBox="0 0 20 20" fill="none">
      <path fill-rule="evenodd" clip-rule="evenodd"
            d="M4.16667 11.6673C3.72464 11.6673 3.30072 11.4917 2.98816 11.1792C2.67559 10.8666 2.5 10.4427 2.5 10.0007C2.5 9.55862 2.67559 9.1347 2.98816 8.82214C3.30072 8.50958 3.72464 8.33398 4.16667 8.33398C4.60869 8.33398 5.03262 8.50958 5.34518 8.82214C5.65774 9.1347 5.83333 9.55862 5.83333 10.0007C5.83333 10.4427 5.65774 10.8666 5.34518 11.1792C5.03262 11.4917 4.60869 11.6673 4.16667 11.6673ZM10 11.6673C9.55797 11.6673 9.13405 11.4917 8.82149 11.1792C8.50893 10.8666 8.33333 10.4427 8.33333 10.0007C8.33333 9.55862 8.50893 9.1347 8.82149 8.82214C9.13405 8.50958 9.55797 8.33398 10 8.33398C10.442 8.33398 10.866 8.50958 11.1785 8.82214C11.4911 9.1347 11.6667 9.55862 11.6667 10.0007C11.6667 10.4427 11.4911 10.8666 11.1785 11.1792C10.866 11.4917 10.442 11.6673 10 11.6673ZM15.8333 11.6673C15.3913 11.6673 14.9674 11.4917 14.6548 11.1792C14.3423 10.8666 14.1667 10.4427 14.1667 10.0007C14.1667 9.55862 14.3423 9.1347 14.6548 8.82214C14.9674 8.50958 15.3913 8.33398 15.8333 8.33398C16.2754 8.33398 16.6993 8.50958 17.0118 8.82214C17.3244 9.1347 17.5 9.55862 17.5 10.0007C17.5 10.4427 17.3244 10.8666 17.0118 11.1792C16.6993 11.4917 16.2754 11.6673 15.8333 11.6673Z"
            fill="currentColor"/>
    </symbol>

    <symbol id="download" viewBox="0 0 20 20" fill="none">
      <path
        d="M6.90833 11.0743C6.83023 11.1518 6.76823 11.244 6.72592 11.3455C6.68362 11.4471 6.66183 11.556 6.66183 11.666C6.66183 11.776 6.68362 11.8849 6.72592 11.9865C6.76823 12.088 6.83023 12.1802 6.90833 12.2577L9.40833 14.7577C9.4858 14.8358 9.57797 14.8978 9.67952 14.9401C9.78107 14.9824 9.88999 15.0042 10 15.0042C10.11 15.0042 10.2189 14.9824 10.3205 14.9401C10.422 14.8978 10.5142 14.8358 10.5917 14.7577L13.0917 12.2577C13.2486 12.1008 13.3367 11.8879 13.3367 11.666C13.3367 11.4441 13.2486 11.2313 13.0917 11.0743C12.9347 10.9174 12.7219 10.8293 12.5 10.8293C12.2781 10.8293 12.0653 10.9174 11.9083 11.0743L10.8333 12.1577V2.49935C10.8333 2.27834 10.7455 2.06637 10.5893 1.91009C10.433 1.75381 10.221 1.66602 10 1.66602C9.77899 1.66602 9.56702 1.75381 9.41074 1.91009C9.25446 2.06637 9.16667 2.27834 9.16667 2.49935V12.1577L8.09167 11.0743C8.0142 10.9962 7.92203 10.9342 7.82048 10.8919C7.71893 10.8496 7.61001 10.8279 7.5 10.8279C7.38999 10.8279 7.28107 10.8496 7.17952 10.8919C7.07797 10.9342 6.9858 10.9962 6.90833 11.0743ZM15 7.49935H13.3333C13.1123 7.49935 12.9004 7.58715 12.7441 7.74343C12.5878 7.89971 12.5 8.11167 12.5 8.33268C12.5 8.5537 12.5878 8.76566 12.7441 8.92194C12.9004 9.07822 13.1123 9.16602 13.3333 9.16602H15C15.221 9.16602 15.433 9.25381 15.5893 9.41009C15.7455 9.56637 15.8333 9.77833 15.8333 9.99935V15.8327C15.8333 16.0537 15.7455 16.2657 15.5893 16.4219C15.433 16.5782 15.221 16.666 15 16.666H5C4.77899 16.666 4.56702 16.5782 4.41074 16.4219C4.25446 16.2657 4.16667 16.0537 4.16667 15.8327V9.99935C4.16667 9.77833 4.25446 9.56637 4.41074 9.41009C4.56702 9.25381 4.77899 9.16602 5 9.16602H6.66667C6.88768 9.16602 7.09964 9.07822 7.25592 8.92194C7.4122 8.76566 7.5 8.5537 7.5 8.33268C7.5 8.11167 7.4122 7.89971 7.25592 7.74343C7.09964 7.58715 6.88768 7.49935 6.66667 7.49935H5C4.33696 7.49935 3.70107 7.76274 3.23223 8.23158C2.76339 8.70042 2.5 9.33631 2.5 9.99935V15.8327C2.5 16.4957 2.76339 17.1316 3.23223 17.6004C3.70107 18.0693 4.33696 18.3327 5 18.3327H15C15.663 18.3327 16.2989 18.0693 16.7678 17.6004C17.2366 17.1316 17.5 16.4957 17.5 15.8327V9.99935C17.5 9.33631 17.2366 8.70042 16.7678 8.23158C16.2989 7.76274 15.663 7.49935 15 7.49935Z"
        fill="currentColor"/>
    </symbol>

    <symbol id="edit" viewBox="0 0 20 20" fill="none">
      <path d="M10 16.666H16.5709" stroke="currentColor" stroke-width="1.46019"
            stroke-linecap="round" stroke-linejoin="round"/>
      <path
        d="M13.2855 4.61964C13.5759 4.32919 13.9699 4.16602 14.3806 4.16602C14.584 4.16602 14.7854 4.20608 14.9733 4.28391C15.1612 4.36174 15.3319 4.47582 15.4758 4.61964C15.6196 4.76345 15.7337 4.93419 15.8115 5.12209C15.8893 5.31 15.9294 5.51139 15.9294 5.71478C15.9294 5.91817 15.8893 6.11956 15.8115 6.30747C15.7337 6.49537 15.6196 6.66611 15.4758 6.80992L6.34958 15.9361L3.4292 16.6662L4.15929 13.7458L13.2855 4.61964Z"
        stroke="currentColor" stroke-width="1.46019" stroke-linecap="round"
        stroke-linejoin="round"/>

    </symbol>

    <symbol id="trash" viewBox="0 0 20 20" fill="none">
      <path
        d="M8.33333 14.9993C8.55435 14.9993 8.76631 14.9116 8.92259 14.7553C9.07887 14.599 9.16667 14.387 9.16667 14.166V9.16602C9.16667 8.945 9.07887 8.73304 8.92259 8.57676C8.76631 8.42048 8.55435 8.33268 8.33333 8.33268C8.11232 8.33268 7.90036 8.42048 7.74408 8.57676C7.5878 8.73304 7.5 8.945 7.5 9.16602V14.166C7.5 14.387 7.5878 14.599 7.74408 14.7553C7.90036 14.9116 8.11232 14.9993 8.33333 14.9993ZM16.6667 4.99935H13.3333V4.16602C13.3333 3.50297 13.0699 2.86709 12.6011 2.39825C12.1323 1.92941 11.4964 1.66602 10.8333 1.66602H9.16667C8.50363 1.66602 7.86774 1.92941 7.3989 2.39825C6.93006 2.86709 6.66667 3.50297 6.66667 4.16602V4.99935H3.33333C3.11232 4.99935 2.90036 5.08715 2.74408 5.24343C2.5878 5.39971 2.5 5.61167 2.5 5.83268C2.5 6.0537 2.5878 6.26566 2.74408 6.42194C2.90036 6.57822 3.11232 6.66602 3.33333 6.66602H4.16667V15.8327C4.16667 16.4957 4.43006 17.1316 4.8989 17.6004C5.36774 18.0693 6.00363 18.3327 6.66667 18.3327H13.3333C13.9964 18.3327 14.6323 18.0693 15.1011 17.6004C15.5699 17.1316 15.8333 16.4957 15.8333 15.8327V6.66602H16.6667C16.8877 6.66602 17.0996 6.57822 17.2559 6.42194C17.4122 6.26566 17.5 6.0537 17.5 5.83268C17.5 5.61167 17.4122 5.39971 17.2559 5.24343C17.0996 5.08715 16.8877 4.99935 16.6667 4.99935ZM8.33333 4.16602C8.33333 3.945 8.42113 3.73304 8.57741 3.57676C8.73369 3.42048 8.94565 3.33268 9.16667 3.33268H10.8333C11.0543 3.33268 11.2663 3.42048 11.4226 3.57676C11.5789 3.73304 11.6667 3.945 11.6667 4.16602V4.99935H8.33333V4.16602ZM14.1667 15.8327C14.1667 16.0537 14.0789 16.2657 13.9226 16.4219C13.7663 16.5782 13.5543 16.666 13.3333 16.666H6.66667C6.44565 16.666 6.23369 16.5782 6.07741 16.4219C5.92113 16.2657 5.83333 16.0537 5.83333 15.8327V6.66602H14.1667V15.8327ZM11.6667 14.9993C11.8877 14.9993 12.0996 14.9116 12.2559 14.7553C12.4122 14.599 12.5 14.387 12.5 14.166V9.16602C12.5 8.945 12.4122 8.73304 12.2559 8.57676C12.0996 8.42048 11.8877 8.33268 11.6667 8.33268C11.4457 8.33268 11.2337 8.42048 11.0774 8.57676C10.9211 8.73304 10.8333 8.945 10.8333 9.16602V14.166C10.8333 14.387 10.9211 14.599 11.0774 14.7553C11.2337 14.9116 11.4457 14.9993 11.6667 14.9993Z"
        fill="currentColor"/>
    </symbol>

    <symbol id="monitor" viewBox="0 0 20 20" fill="none">
      <path
        d="M7.49935 15.8332C7.60825 15.8319 7.71583 15.8092 7.81602 15.7665C7.917 15.7243 8.01001 15.6651 8.09102 15.5915C8.12872 15.5505 8.16222 15.5058 8.19102 15.4582C8.224 15.4156 8.24937 15.3677 8.26602 15.3165C8.29585 15.2702 8.31833 15.2196 8.33268 15.1665C8.33677 15.111 8.33677 15.0553 8.33268 14.9998C8.33137 14.8909 8.30872 14.7834 8.26602 14.6832C8.22859 14.5798 8.16888 14.4858 8.09111 14.4081C8.01335 14.3303 7.91943 14.2706 7.81602 14.2332C7.66516 14.1632 7.49684 14.14 7.33268 14.1665L7.18268 14.2165C7.13149 14.2331 7.08356 14.2585 7.04102 14.2915C6.99334 14.3203 6.94867 14.3538 6.90768 14.3915C6.83181 14.4708 6.77234 14.5642 6.73268 14.6665C6.68779 14.7719 6.6651 14.8853 6.66602 14.9998C6.66602 15.2209 6.75381 15.4328 6.91009 15.5891C7.06637 15.7454 7.27834 15.8332 7.49935 15.8332ZM4.40768 15.5915C4.48868 15.6651 4.58169 15.7243 4.68268 15.7665C4.78287 15.8092 4.89045 15.8319 4.99935 15.8332H5.15768C5.21288 15.8254 5.26639 15.8085 5.31602 15.7832C5.36912 15.7649 5.41956 15.7397 5.46602 15.7082L5.59102 15.6082C5.66462 15.5272 5.72381 15.4342 5.76602 15.3332C5.81529 15.2292 5.83819 15.1147 5.83268 14.9998C5.83677 14.9444 5.83677 14.8886 5.83268 14.8332C5.82356 14.781 5.80671 14.7304 5.78268 14.6832C5.76604 14.632 5.74067 14.584 5.70768 14.5415C5.67889 14.4938 5.64539 14.4492 5.60768 14.4082C5.4905 14.2925 5.34168 14.2142 5.18003 14.1831C5.01837 14.1519 4.85111 14.1694 4.69935 14.2332C4.59706 14.2728 4.5036 14.3323 4.42435 14.4082C4.38664 14.4492 4.35314 14.4938 4.32435 14.5415C4.29137 14.584 4.26599 14.632 4.24935 14.6832C4.21366 14.7283 4.18552 14.779 4.16602 14.8332C4.16193 14.8886 4.16193 14.9444 4.16602 14.9998C4.16733 15.1087 4.18998 15.2163 4.23268 15.3165C4.27488 15.4175 4.33407 15.5105 4.40768 15.5915ZM15.8327 1.6665H4.16602C3.50297 1.6665 2.86709 1.9299 2.39825 2.39874C1.92941 2.86758 1.66602 3.50346 1.66602 4.1665V15.8332C1.66602 16.4962 1.92941 17.1321 2.39825 17.6009C2.86709 18.0698 3.50297 18.3332 4.16602 18.3332H15.8327C16.4957 18.3332 17.1316 18.0698 17.6004 17.6009C18.0693 17.1321 18.3327 16.4962 18.3327 15.8332V4.1665C18.3327 3.50346 18.0693 2.86758 17.6004 2.39874C17.1316 1.9299 16.4957 1.6665 15.8327 1.6665ZM16.666 15.8332C16.666 16.0542 16.5782 16.2661 16.4219 16.4224C16.2657 16.5787 16.0537 16.6665 15.8327 16.6665H4.16602C3.945 16.6665 3.73304 16.5787 3.57676 16.4224C3.42048 16.2661 3.33268 16.0542 3.33268 15.8332V13.3332H16.666V15.8332ZM16.666 11.6665H3.33268V8.33317H6.66602C6.77569 8.3338 6.88441 8.31278 6.98594 8.27131C7.08747 8.22984 7.17982 8.16874 7.25768 8.0915L8.33268 7.04984L10.666 9.7165C10.7413 9.8023 10.8334 9.87173 10.9366 9.92046C11.0398 9.9692 11.1519 9.99622 11.266 9.99984C11.3757 10.0005 11.4844 9.97945 11.5859 9.93798C11.6875 9.89651 11.7798 9.83541 11.8577 9.75817L13.2577 8.33317H16.666V11.6665ZM16.666 6.6665H12.916C12.8063 6.66587 12.6976 6.68689 12.5961 6.72836C12.4946 6.76983 12.4022 6.83094 12.3243 6.90817L11.291 7.94984L8.95768 5.28317C8.87973 5.19991 8.78552 5.13354 8.68088 5.08816C8.57624 5.04279 8.4634 5.01938 8.34935 5.01938C8.2353 5.01938 8.12245 5.04279 8.01782 5.08816C7.91318 5.13354 7.81897 5.19991 7.74102 5.28317L6.32435 6.6665H3.33268V4.1665C3.33268 3.94549 3.42048 3.73353 3.57676 3.57725C3.73304 3.42097 3.945 3.33317 4.16602 3.33317H15.8327C16.0537 3.33317 16.2657 3.42097 16.4219 3.57725C16.5782 3.73353 16.666 3.94549 16.666 4.1665V6.6665Z"
        fill="currentColor"/>
    </symbol>

    <symbol id="" viewBox="0 0 24 24" fill="none">

    </symbol>
  </defs>
</svg>
